<?xml version="1.0" encoding="iso-8859-1"?>
<!-- Uploaded to: SVG Repo, www.svgrepo.com, Generator: SVG Repo Mixer Tools -->
<svg fill="#000000" height="800px" width="800px" version="1.1" id="Layer_1" xmlns="http://www.w3.org/2000/svg" xmlns:xlink="http://www.w3.org/1999/xlink" 
	 viewBox="0 0 511.998 511.998" xml:space="preserve">
<g>
	<g>
		<path d="M508.888,225.866c-23.849-23.849-23.992-63.199-0.32-87.719c3.727-3.859,3.671-9.992-0.121-13.785l-9.295-9.294
			c-3.841-3.841-10.068-3.839-13.907,0c-1.278,1.278-3.358,1.278-4.637,0s-1.278-3.358,0-4.637c3.841-3.841,3.841-10.068,0-13.907
			l-9.272-9.272c-3.841-3.841-10.068-3.841-13.907,0c-0.835,0.835-1.811,0.96-2.318,0.96s-1.483-0.125-2.318-0.96
			c-0.835-0.835-0.96-1.811-0.96-2.318s0.125-1.482,0.96-2.318c3.841-3.841,3.841-10.068,0-13.907l-9.272-9.272
			c-1.844-1.845-4.345-2.881-6.953-2.881c-2.608,0-5.11,1.036-6.953,2.881c-0.835,0.835-1.811,0.96-2.318,0.96
			s-1.482-0.125-2.318-0.96c-0.837-0.835-0.96-1.811-0.96-2.318s0.125-1.483,0.96-2.318c3.841-3.841,3.841-10.068,0-13.907
			l-9.272-9.272c-3.841-3.841-10.068-3.841-13.907,0c-1.278,1.278-3.359,1.278-4.636,0c-1.277-1.279-1.279-3.358,0-4.637
			c3.841-3.841,3.841-10.066,0-13.907l-9.295-9.295c-3.791-3.792-9.922-3.847-13.782-0.123c-24.267,23.416-63.41,23.066-87.257-0.78
			c-3.841-3.841-10.068-3.841-13.907,0L3.111,272.688c-3.841,3.841-3.841,10.068,0,13.907c24.284,24.285,24.284,63.798,0,88.082
			c-1.845,1.845-2.881,4.345-2.881,6.953c0,2.608,1.036,5.11,2.881,6.955l9.272,9.272c3.841,3.841,10.068,3.839,13.907,0
			c0.835-0.835,1.811-0.96,2.318-0.96s1.483,0.125,2.318,0.96c0.835,0.835,0.96,1.811,0.96,2.318s-0.125,1.483-0.96,2.318
			c-3.841,3.841-3.841,10.068,0,13.907l9.272,9.272c3.841,3.841,10.068,3.841,13.907,0c0.835-0.835,1.811-0.96,2.318-0.96
			s1.483,0.125,2.318,0.96c0.835,0.835,0.96,1.811,0.96,2.318c0,0.507-0.125,1.483-0.96,2.318c-3.841,3.841-3.841,10.068,0,13.907
			l9.272,9.272c3.841,3.841,10.068,3.841,13.907,0c1.278-1.279,3.359-1.277,4.637,0c1.278,1.278,1.278,3.358,0,4.636
			c-3.841,3.841-3.841,10.068,0,13.907l9.272,9.272c3.841,3.841,10.068,3.841,13.907,0c0.835-0.835,1.811-0.96,2.318-0.96
			s1.483,0.125,2.318,0.96c1.278,1.278,1.278,3.359,0,4.637c-3.841,3.841-3.841,10.066,0,13.907l9.272,9.272
			c1.845,1.845,4.345,2.881,6.955,2.881c2.609,0,5.11-1.036,6.953-2.881c11.899-11.899,27.672-18.495,44.414-18.571
			c16.738-0.108,32.381,6.354,44.132,18.107c1.844,1.845,4.345,2.881,6.953,2.881s5.11-1.036,6.953-2.881l268.884-268.881
			C512.728,235.932,512.728,229.705,508.888,225.866z M232.638,488.206c-14.299-11.241-31.85-17.328-50.378-17.328
			c-0.127,0-0.256,0-0.383,0c-17.022,0.077-33.275,5.286-46.985,14.886c0.611-6.568-1.592-13.351-6.611-18.37
			c-5.891-5.891-14.211-7.901-21.768-6.037c0.445-1.795,0.673-3.656,0.673-5.552c0-6.13-2.386-11.892-6.72-16.227
			c-4.334-4.335-10.096-6.72-16.226-6.72c-1.897,0-3.758,0.228-5.553,0.673c1.867-7.553-0.146-15.876-6.037-21.768
			c-5.895-5.895-14.228-7.905-21.782-6.033c1.874-7.557-0.138-15.888-6.033-21.783c-4.334-4.335-10.096-6.72-16.226-6.72
			c-0.733,0-1.459,0.034-2.179,0.101c20.32-29.285,19.366-68.968-2.872-97.274l256.73-256.726
			c14.185,11.165,31.572,17.299,49.886,17.448c16.845,0.146,32.87-4.758,46.496-13.98c-0.089,0.826-0.135,1.664-0.135,2.507
			c0,6.129,2.386,11.892,6.72,16.227c5.891,5.891,14.214,7.904,21.768,6.037c-0.445,1.795-0.673,3.657-0.673,5.553
			c0,6.129,2.388,11.892,6.721,16.225c4.334,4.335,10.096,6.721,16.225,6.721c1.892,0,3.747-0.227,5.539-0.669
			c-0.442,1.79-0.669,3.646-0.669,5.537c0,6.13,2.386,11.892,6.72,16.227c4.334,4.335,10.096,6.72,16.226,6.72
			c1.896,0,3.758-0.228,5.552-0.673c-1.866,7.553,0.146,15.876,6.037,21.768c5.105,5.103,12.032,7.293,18.71,6.576
			c-9.346,13.726-14.349,29.916-14.288,46.787c0.065,18.407,6.155,35.856,17.319,50.067L232.638,488.206z"/>
	</g>
</g>
<g>
	<g>
		<path d="M458.419,220.705c-3.841-3.841-10.068-3.841-13.908,0L225.646,439.567c-23.482-8.974-49.226-10.432-73.728-4.164
			l-75.236-75.234c6.074-24.302,4.516-49.848-4.445-73.161L287.319,71.926c22.738,8.658,47.693,10.326,71.479,4.769l76.586,76.59
			c-4.067,17.018-4.477,34.905-1.156,52.093c1.031,5.333,6.184,8.818,11.521,7.79c5.333-1.031,8.821-6.188,7.79-11.52
			c-3.104-16.068-2.329-32.863,2.241-48.571c1.002-3.445,0.049-7.163-2.489-9.701l-84.559-84.563
			c-2.524-2.524-6.215-3.483-9.647-2.504c-23.232,6.615-48.118,4.854-70.068-4.955c-3.723-1.665-8.085-0.859-10.966,2.025
			L53.673,277.756c-2.891,2.891-3.691,7.268-2.011,10.996c10.121,22.448,11.758,47.832,4.608,71.478
			c-1.05,3.47-0.105,7.237,2.459,9.8c0.003,0.003,0.005,0.005,0.008,0.008c0.001,0.001,0.003,0.003,0.004,0.004l83.343,83.343
			c2.578,2.578,6.373,3.519,9.853,2.444c23.834-7.353,49.401-5.819,71.992,4.314c1.293,0.58,2.663,0.861,4.022,0.861
			c2.556,0,5.072-0.997,6.956-2.881l223.514-223.512C462.259,230.771,462.259,224.544,458.419,220.705z"/>
	</g>
</g>
<g>
	<g>
		<path d="M176.958,372.359l-30.133-30.133l6.953-6.953c3.841-3.841,3.841-10.068,0-13.907c-3.841-3.841-10.068-3.841-13.907,0
			l-27.815,27.815c-3.841,3.841-3.841,10.068,0,13.907c1.92,1.921,4.436,2.881,6.953,2.881c2.516,0,5.034-0.96,6.953-2.881
			l6.955-6.955l30.133,30.133c1.92,1.92,4.437,2.881,6.953,2.881s5.034-0.96,6.953-2.881
			C180.798,382.425,180.798,376.198,176.958,372.359z"/>
	</g>
</g>
<g>
	<g>
		<path d="M386.036,163.281l-30.133-30.133l6.953-6.953c3.841-3.841,3.841-10.068,0-13.907c-3.841-3.841-10.068-3.841-13.907,0
			l-27.815,27.815c-3.841,3.841-3.841,10.068,0,13.907c1.92,1.92,4.437,2.881,6.953,2.881s5.034-0.96,6.953-2.881l6.953-6.953
			l30.133,30.133c1.921,1.92,4.439,2.88,6.955,2.88s5.034-0.96,6.953-2.881C389.877,173.347,389.877,167.12,386.036,163.281z"/>
	</g>
</g>
<g>
	<g>
		<path d="M209.872,339.444l-37.087-37.087c-3.841-3.841-10.068-3.841-13.907,0c-3.841,3.841-3.841,10.068,0,13.907l37.087,37.087
			c1.92,1.921,4.436,2.881,6.953,2.881c2.516,0,5.034-0.96,6.953-2.881C213.713,349.511,213.713,343.284,209.872,339.444z"/>
	</g>
</g>
<g>
	<g>
		<path d="M300.272,239.21H273.02v-27.253c0-5.431-4.403-9.834-9.834-9.834s-9.834,4.403-9.834,9.834v31.888l-11.027-11.027
			c-3.841-3.841-10.068-3.841-13.907,0c-3.841,3.841-3.841,10.068,0,13.907l37.087,37.087c1.92,1.92,4.437,2.881,6.953,2.881
			c2.516,0,5.034-0.96,6.953-2.881c3.841-3.841,3.841-10.068,0-13.907l-6.392-6.392v-4.635h27.253
			c5.432,0.001,9.836-4.402,9.836-9.833S305.704,239.21,300.272,239.21z"/>
	</g>
</g>
<g>
	<g>
		<path d="M248.428,280.084c-5.431,0-9.834,4.403-9.834,9.834c0,8.978-7.304,16.282-16.282,16.282s-16.282-7.304-16.282-16.281
			c0-8.978,7.304-16.282,16.282-16.282c5.431,0,9.834-4.403,9.834-9.834s-4.403-9.834-9.834-9.834
			c-19.823,0-35.95,16.127-35.95,35.95c0,19.823,16.127,35.95,35.95,35.95s35.95-16.127,35.95-35.95
			C258.262,284.487,253.859,280.084,248.428,280.084z"/>
	</g>
</g>
<g>
	<g>
		<path d="M342.052,195.339c-5.244-1.402-10.637,1.716-12.04,6.964c-0.737,2.76-2.204,5.297-4.243,7.336
			c-3.784,3.784-8.973,5.324-13.903,4.63l27.81-27.81c3.841-3.841,3.841-10.068,0-13.907c-6.81-6.811-15.866-10.562-25.497-10.562
			s-18.686,3.75-25.497,10.562c-6.81,6.81-10.562,15.866-10.562,25.497c0,9.631,3.75,18.686,10.562,25.497
			c6.811,6.811,15.866,10.562,25.497,10.562s18.688-3.75,25.498-10.561c4.48-4.48,7.71-10.072,9.339-16.169
			C350.418,202.131,347.3,196.741,342.052,195.339z M302.591,186.459c3.195-3.195,7.393-4.793,11.59-4.793
			c0.774,0,1.546,0.055,2.313,0.163l-18.533,18.533C297.263,195.432,298.806,190.243,302.591,186.459z"/>
	</g>
</g>
<g>
	<g>
		<path d="M139.592,282.395l-1.61-0.254l0.74-1.453c2.465-4.838,0.542-10.761-4.298-13.226c-4.838-2.465-10.761-0.543-13.226,4.298
			l-0.74,1.453l-1.153-1.153c-3.839-3.842-10.066-3.841-13.907,0s-3.841,10.066,0,13.907l1.153,1.153l-1.453,0.741
			c-4.836,2.465-6.761,8.387-4.294,13.226c1.737,3.409,5.19,5.371,8.769,5.371c1.503,0,3.028-0.345,4.457-1.074l1.452-0.74
			l0.254,1.609c0.767,4.844,4.947,8.297,9.7,8.297c0.511,0,1.031-0.039,1.551-0.122c5.364-0.85,9.024-5.887,8.174-11.252
			l-0.254-1.61l1.61,0.256c0.521,0.083,1.038,0.122,1.55,0.122c4.753,0,8.933-3.454,9.701-8.297
			C148.617,288.283,144.956,283.245,139.592,282.395z"/>
	</g>
</g>
<g>
	<g>
		<path d="M194.297,227.694l-1.61-0.254l0.74-1.453c2.465-4.838,0.542-10.761-4.298-13.226c-4.838-2.465-10.761-0.543-13.226,4.298
			l-0.74,1.452l-1.153-1.153c-3.842-3.842-10.068-3.841-13.908,0c-3.841,3.841-3.841,10.066,0,13.907l1.153,1.153l-1.453,0.74
			c-4.837,2.465-6.761,8.387-4.296,13.226c1.737,3.409,5.19,5.372,8.77,5.372c1.503,0,3.028-0.345,4.457-1.074l1.453-0.74
			l0.256,1.61c0.767,4.844,4.947,8.298,9.701,8.298c0.511,0,1.031-0.039,1.551-0.122c5.364-0.85,9.024-5.887,8.174-11.252
			l-0.254-1.61l1.61,0.256c0.521,0.083,1.039,0.122,1.55,0.122c4.753,0,8.933-3.454,9.701-8.297
			C203.323,233.581,199.662,228.543,194.297,227.694z"/>
	</g>
</g>
<g>
	<g>
		<path d="M249.928,172.061l-1.61-0.254l0.74-1.452c2.465-4.84,0.542-10.761-4.297-13.228c-4.84-2.466-10.763-0.543-13.228,4.297
			l-0.741,1.453l-1.153-1.153c-3.841-3.841-10.068-3.841-13.907,0c-3.841,3.841-3.841,10.068,0,13.907l1.153,1.153l-1.453,0.741
			c-4.837,2.466-6.761,8.388-4.296,13.228c1.737,3.409,5.19,5.371,8.77,5.371c1.503,0,3.028-0.345,4.457-1.074l1.451-0.74
			l0.254,1.61c0.767,4.844,4.947,8.297,9.701,8.297c0.511,0,1.029-0.039,1.551-0.122c5.364-0.85,9.024-5.887,8.174-11.252
			l-0.254-1.61l1.61,0.254c0.521,0.083,1.039,0.122,1.551,0.122c4.753,0,8.933-3.454,9.7-8.297
			C258.952,177.948,255.292,172.91,249.928,172.061z"/>
	</g>
</g>
<g>
	<g>
		<path d="M305.559,116.432l-1.609-0.254l0.74-1.452c2.465-4.84,0.542-10.761-4.297-13.228c-4.84-2.466-10.763-0.543-13.228,4.297
			l-0.741,1.453l-1.153-1.153c-3.841-3.842-10.068-3.841-13.907,0c-3.841,3.841-3.841,10.068,0,13.907l1.153,1.153l-1.453,0.74
			c-4.838,2.466-6.763,8.388-4.297,13.228c1.737,3.409,5.19,5.372,8.77,5.372c1.503,0,3.028-0.345,4.457-1.074l1.453-0.74
			l0.254,1.61c0.767,4.844,4.947,8.297,9.701,8.297c0.511,0,1.029-0.039,1.55-0.122c5.364-0.85,9.025-5.887,8.176-11.252
			l-0.256-1.61l1.61,0.254c0.521,0.083,1.039,0.122,1.551,0.122c4.753,0,8.933-3.454,9.7-8.297
			C314.583,122.319,310.924,117.281,305.559,116.432z"/>
	</g>
</g>
<g>
	<g>
		<path d="M241.057,383.858l-1.61-0.254l0.74-1.453c2.465-4.838,0.542-10.761-4.298-13.226c-4.838-2.465-10.761-0.543-13.226,4.298
			l-0.74,1.452l-1.153-1.153c-3.842-3.842-10.068-3.841-13.908,0s-3.841,10.066,0,13.907l1.153,1.153l-1.453,0.741
			c-4.838,2.466-6.763,8.388-4.297,13.228c1.737,3.409,5.19,5.371,8.77,5.371c1.503,0,3.028-0.345,4.457-1.074l1.452-0.74
			l0.254,1.609c0.767,4.844,4.947,8.297,9.7,8.297c0.511,0,1.031-0.039,1.551-0.122c5.364-0.85,9.024-5.887,8.174-11.252
			l-0.254-1.61l1.61,0.256c0.524,0.083,1.042,0.122,1.554,0.122c4.753,0,8.933-3.454,9.701-8.297
			C250.082,389.746,246.422,384.708,241.057,383.858z"/>
	</g>
</g>
<g>
	<g>
		<path d="M295.76,329.155l-1.61-0.254l0.74-1.453c2.465-4.838,0.542-10.761-4.298-13.226c-4.838-2.465-10.761-0.543-13.226,4.298
			l-0.74,1.453l-1.153-1.153c-3.839-3.841-10.066-3.841-13.907,0c-3.841,3.841-3.841,10.066,0,13.907l1.153,1.153l-1.452,0.74
			c-4.84,2.465-6.763,8.387-4.298,13.226c1.737,3.409,5.19,5.372,8.77,5.372c1.503,0,3.028-0.345,4.457-1.074l1.453-0.74l0.256,1.61
			c0.767,4.844,4.947,8.297,9.701,8.297c0.511,0,1.031-0.039,1.551-0.122c5.364-0.85,9.024-5.887,8.174-11.252l-0.254-1.61
			l1.61,0.256c0.522,0.081,1.039,0.121,1.55,0.121c4.753,0,8.933-3.454,9.701-8.297C304.786,335.043,301.125,330.005,295.76,329.155
			z"/>
	</g>
</g>
<g>
	<g>
		<path d="M351.393,273.525l-1.61-0.254l0.74-1.452c2.465-4.84,0.542-10.761-4.297-13.228c-4.838-2.465-10.761-0.543-13.228,4.297
			l-0.741,1.453l-1.153-1.153c-3.841-3.841-10.068-3.841-13.907,0c-3.841,3.841-3.841,10.068,0,13.907l1.153,1.153l-1.453,0.741
			c-4.838,2.466-6.763,8.388-4.297,13.228c1.737,3.409,5.19,5.371,8.769,5.371c1.503,0,3.028-0.345,4.457-1.074l1.452-0.74
			l0.254,1.61c0.767,4.844,4.947,8.297,9.701,8.297c0.511,0,1.029-0.039,1.551-0.122c5.364-0.85,9.024-5.887,8.174-11.252
			l-0.254-1.61l1.61,0.254c0.522,0.083,1.04,0.122,1.552,0.122c4.753,0,8.933-3.454,9.701-8.297
			C360.417,279.412,356.758,274.375,351.393,273.525z"/>
	</g>
</g>
<g>
	<g>
		<path d="M407.024,217.895l-1.609-0.254l0.74-1.452c2.465-4.84,0.542-10.761-4.297-13.228c-4.84-2.465-10.763-0.543-13.228,4.297
			l-0.741,1.453l-1.153-1.153c-3.841-3.842-10.068-3.841-13.907,0c-3.841,3.841-3.841,10.068,0,13.908l1.153,1.153l-1.452,0.74
			c-4.84,2.465-6.763,8.388-4.298,13.226c1.737,3.409,5.19,5.372,8.769,5.372c1.503,0,3.028-0.345,4.457-1.074l1.453-0.74
			l0.254,1.61c0.767,4.844,4.947,8.297,9.701,8.297c0.511,0,1.029-0.039,1.55-0.122c5.364-0.85,9.025-5.887,8.175-11.252
			l-0.256-1.61l1.61,0.254c0.522,0.081,1.04,0.122,1.551,0.122c4.753,0,8.933-3.454,9.701-8.297
			C416.048,223.782,412.388,218.744,407.024,217.895z"/>
	</g>
</g>
</svg>